<?xml version="1.0" encoding="utf-8"?>
<!-- Generator: Adobe Illustrator 16.0.0, SVG Export Plug-In . SVG Version: 6.00 Build 0)  -->
<!DOCTYPE svg PUBLIC "-//W3C//DTD SVG 1.1//EN" "http://www.w3.org/Graphics/SVG/1.1/DTD/svg11.dtd">
<svg version="1.1" id="Layer_1" xmlns="http://www.w3.org/2000/svg" xmlns:xlink="http://www.w3.org/1999/xlink" x="0px" y="0px"
	 width="100px" height="100px" viewBox="0 0 100 100" enable-background="new 0 0 100 100" xml:space="preserve">
<g>
	<path d="M22.026,98.771L2.711,69.288l31.244-20.207L21.447,26.725c-1.075-1.891-1.608-3.628-1.608-5.214
		c0-1.372,0.472-2.599,1.417-3.667c1.456-1.722,3.323-2.965,5.595-3.735c0.602-0.221,1.014-0.366,1.227-0.45L57.439,1.229
		c3.171,1.463,5.854,3.841,8.049,7.149c2.188,3.301,3.277,6.883,3.277,10.748c0,2.958-0.641,5.656-1.928,8.103
		c-1.297,2.447-3.309,4.81-6.061,7.089c-1.715,1.456-5.83,4.306-12.333,8.552L62.02,67.253L81.259,53.77
		c3.133,2.446,5.603,4.078,7.401,4.893c1.807,0.816,3.461,1.221,4.962,1.221c0.557,0,1.204-0.062,1.929-0.191
		c0.343-0.045,0.625-0.061,0.838-0.061l0.58,0.19c0.213,0.298,0.32,0.625,0.32,0.968c0,1.158-1.381,2.828-4.146,5.016
		C90.367,68,87.395,69.09,84.217,69.09c-4.124,0-7.951-1.975-11.465-5.938l-9.359,6.57c2.683,4.817,4.794,8.179,6.342,10.092
		c1.547,1.906,3.635,3.567,6.28,4.984c2.638,1.418,5.655,2.127,9.04,2.127c2.447,0,5.236-0.754,8.377-2.256
		c0.343-0.168,0.617-0.252,0.83-0.252c0.215,0,0.39,0.084,0.52,0.252c0.213,0.221,0.32,0.457,0.32,0.709
		c0,1.288-0.785,3.071-2.348,5.343c-1.57,2.279-3.865,4.185-6.891,5.731c-3.027,1.548-6.281,2.318-9.758,2.318
		c-3.855,0-7.316-0.793-10.365-2.379c-3.041-1.593-5.748-3.78-8.11-6.57c-1.715-2.02-4.078-5.709-7.081-11.075L22.026,98.771z
		 M33.292,87.375l15.87-11.113l-13.88-24.803L17.506,63.045L33.292,87.375z"/>
</g>
</svg>
